<svg width="116" height="24" viewBox="0 0 116 24" fill="none" xmlns="http://www.w3.org/2000/svg">
<path d="M113.283 13.4078C113.149 13.4749 113.049 13.5084 112.982 13.5084C112.848 13.5084 112.725 13.4413 112.613 13.3073C111.719 12.1899 110.792 11.4078 109.831 10.9609C108.87 10.4916 108.032 10.257 107.317 10.257C106.803 10.257 106.322 10.3687 105.875 10.5922C105.451 10.8156 105.239 11.2067 105.239 11.7654C105.239 12.1899 105.406 12.5475 105.741 12.838C106.077 13.1285 106.49 13.3631 106.982 13.5419C107.496 13.7207 108.021 13.8771 108.557 14.0112C109.317 14.1899 110.088 14.4022 110.87 14.648C111.652 14.8715 112.367 15.1732 113.015 15.5531C113.663 15.933 114.188 16.4134 114.591 16.9944C114.993 17.5754 115.194 18.2905 115.194 19.1397C115.194 20.5251 114.635 21.676 113.518 22.5922C112.423 23.5084 110.915 23.9665 108.993 23.9665C108.389 23.9665 107.797 23.8994 107.216 23.7654C106.635 23.6536 106.088 23.4637 105.574 23.1955C105.44 23.1285 105.35 23.095 105.306 23.095C105.172 23.095 105.105 23.162 105.105 23.2961C105.105 23.3631 105.127 23.4413 105.172 23.5307C105.216 23.6648 105.239 23.743 105.239 23.7654C105.239 23.9218 105.116 24 104.87 24H103.797C103.574 24 103.406 23.9106 103.294 23.7318L100.78 18.9721C100.713 18.838 100.68 18.7486 100.68 18.7039C100.68 18.5475 100.758 18.4246 100.915 18.3352L101.82 17.8324C101.954 17.7654 102.043 17.7318 102.088 17.7318C102.199 17.7318 102.311 17.8212 102.423 18C103.384 19.4302 104.434 20.4581 105.574 21.0838C106.736 21.6871 107.92 21.9888 109.127 21.9888C111.004 21.9888 111.942 21.419 111.942 20.2793C111.942 19.7654 111.708 19.3519 111.239 19.0391C110.792 18.7039 110.222 18.4246 109.529 18.2011C108.859 17.9776 108.177 17.7877 107.484 17.6313C105.831 17.2067 104.602 16.7151 103.797 16.1564C102.993 15.5754 102.468 14.9721 102.222 14.3464C101.976 13.7207 101.853 13.1173 101.853 12.5363C101.853 11.3519 102.3 10.3799 103.194 9.62011C104.11 8.86033 105.35 8.48044 106.915 8.48044C107.831 8.48044 108.635 8.60335 109.328 8.84916C110.043 9.07262 110.546 9.27374 110.836 9.45251C110.926 9.4972 110.993 9.51955 111.037 9.51955C111.105 9.51955 111.138 9.48603 111.138 9.41899C111.138 9.3743 111.127 9.31843 111.105 9.25139C111.082 9.18435 111.049 9.10614 111.004 9.01675C110.982 8.92737 110.959 8.86033 110.937 8.81564C110.937 8.7486 110.937 8.7039 110.937 8.68156C110.937 8.48044 111.071 8.37988 111.339 8.37988H112.11C112.356 8.37988 112.524 8.49161 112.613 8.71508L114.088 12.4357C114.11 12.5028 114.121 12.5587 114.121 12.6033C114.144 12.648 114.155 12.6927 114.155 12.7374C114.155 12.8715 114.077 12.9832 113.92 13.0726L113.283 13.4078Z" fill="#0C3B6E"/>
<path d="M100.541 21.8211C100.832 21.8211 100.977 21.9664 100.977 22.2569V23.1619C100.977 23.4524 100.81 23.5977 100.474 23.5977H92.128C91.7928 23.5977 91.6252 23.4524 91.6252 23.1619V22.2569C91.6252 21.9664 91.7705 21.8211 92.061 21.8211H92.128C92.8431 21.8211 93.3794 21.553 93.737 21.0166C94.0945 20.4803 94.2733 19.8211 94.2733 19.039V15.9217C94.2733 15.363 94.2398 14.8379 94.1727 14.3463C94.1057 13.8546 93.9493 13.4412 93.7035 13.106C93.4576 12.7485 93.0666 12.5474 92.5303 12.5027C92.2845 12.4803 92.1616 12.3463 92.1616 12.1004V11.0949C92.1616 10.9161 92.3068 10.7932 92.5973 10.7261C93.8264 10.4356 94.8319 10.0781 95.6141 9.65352C96.3962 9.22894 97.2007 8.68145 98.0275 8.01106C98.0945 7.96637 98.1504 7.94402 98.1951 7.94402H98.2286C98.2733 7.94402 98.2956 7.96637 98.2956 8.01106V19.0055C98.2956 19.7876 98.4744 20.458 98.8319 21.0166C99.1895 21.553 99.7258 21.8211 100.441 21.8211H100.541ZM96.318 1.97754C96.9437 1.97754 97.547 2.27922 98.128 2.88257C98.7314 3.46357 99.0331 4.05575 99.0331 4.6591C99.0331 5.26246 98.7314 5.85463 98.128 6.43564C97.547 7.03899 96.9437 7.34067 96.318 7.34067C95.7593 7.34067 95.1671 7.03899 94.5414 6.43564C93.9381 5.87698 93.6364 5.2848 93.6364 4.6591C93.6364 4.05575 93.9381 3.46357 94.5414 2.88257C95.1224 2.27922 95.7146 1.97754 96.318 1.97754Z" fill="#0C3B6E"/>
<path d="M89.4825 18.1341C89.4825 18.8268 89.5942 19.4637 89.8177 20.0447C90.0411 20.6034 90.5104 20.9274 91.2255 21.0168C91.4713 21.0391 91.5942 21.1732 91.5942 21.419V22.3911C91.5942 22.6592 91.4378 22.7933 91.1249 22.7933C90.164 22.7933 89.3596 22.8492 88.7115 22.9609C88.0858 23.0726 87.5383 23.2179 87.0691 23.3967C86.5998 23.5531 86.1417 23.7319 85.6947 23.933C85.6501 23.9553 85.583 23.9665 85.4936 23.9665H85.4266C85.3819 23.9665 85.3596 23.933 85.3596 23.8659C85.3596 23.7542 85.3819 23.4525 85.4266 22.9609C85.4936 22.4693 85.5607 21.933 85.6277 21.352C85.4713 21.7095 85.2143 22.1006 84.8568 22.5252C84.4992 22.9274 84.0188 23.2738 83.4154 23.5643C82.8344 23.8324 82.097 23.9665 81.2031 23.9665C80.5327 23.9665 79.8177 23.8324 79.0579 23.5643C78.2981 23.2738 77.583 22.8268 76.9126 22.2235C76.2422 21.6201 75.6948 20.8268 75.2702 19.8436C74.8456 18.838 74.6333 17.6201 74.6333 16.19C74.6333 14.3576 74.9573 12.8827 75.6054 11.7654C76.2758 10.6257 77.1361 9.79891 78.1864 9.28494C79.2367 8.74863 80.354 8.48047 81.5383 8.48047C83.4601 8.48047 85.0579 9.0503 86.3316 10.19C87.2478 9.83243 87.9517 9.46371 88.4434 9.08382C88.935 8.68159 89.2478 8.48047 89.3819 8.48047C89.4489 8.48047 89.4825 8.50282 89.4825 8.54751V18.1341ZM85.3596 13.9777C85.3596 12.8827 85.1026 12.0224 84.5886 11.3967C84.0746 10.771 83.2366 10.4581 82.0746 10.4581C81.1361 10.4581 80.3987 10.6928 79.8623 11.162C79.3484 11.609 78.9797 12.2011 78.7562 12.9386C78.5551 13.6537 78.4545 14.4246 78.4545 15.2514C78.4545 17.1509 78.8232 18.6481 79.5607 19.743C80.3205 20.838 81.3037 21.3855 82.5104 21.3855C83.2255 21.3855 83.7841 21.2402 84.1864 20.9497C84.5886 20.6369 84.8791 20.324 85.0579 20.0112C85.2366 19.676 85.3372 19.4861 85.3596 19.4414V13.9777Z" fill="#0C3B6E"/>
<path d="M74.8695 8.84961C75.16 8.84961 75.3053 8.99486 75.3053 9.28536V10.1904C75.3053 10.4809 75.16 10.6261 74.8695 10.6261H74.4002C74.1097 10.6261 73.8416 10.749 73.5958 10.9949C73.35 11.2183 73.0483 11.6988 72.6907 12.4362L67.7298 23.263C67.6181 23.4865 67.4617 23.5982 67.2606 23.5982H65.5846C65.3835 23.5982 65.2271 23.4865 65.1153 23.263L60.1544 12.4697C59.8192 11.7323 59.5399 11.2407 59.3164 10.9949C59.1153 10.749 58.8248 10.6261 58.4449 10.6261H58.3779C58.0874 10.6261 57.9421 10.4809 57.9421 10.1904V9.28536C57.9421 8.99486 58.0874 8.84961 58.3779 8.84961H65.2159C65.5064 8.84961 65.6516 8.99486 65.6516 9.28536V10.1904C65.6516 10.4809 65.5064 10.6261 65.2159 10.6261H65.1488C64.4785 10.6261 64.1433 10.9055 64.1433 11.4641C64.1433 11.7323 64.1991 12.0228 64.3109 12.3356C64.4226 12.6485 64.579 13.006 64.7801 13.4083L67.4952 19.1736L69.9421 13.4083C70.1433 12.9613 70.3108 12.5479 70.4449 12.168C70.6014 11.7882 70.6796 11.4753 70.6796 11.2295C70.6796 10.8273 70.4561 10.6261 70.0092 10.6261H69.4393C69.1265 10.6261 68.9701 10.4809 68.9701 10.1904V9.28536C68.9701 8.99486 69.1265 8.84961 69.4393 8.84961H74.8695Z" fill="#0C3B6E"/>
<path d="M58.5677 20.3129C57.942 21.4078 57.1487 22.2905 56.1879 22.9609C55.2493 23.6313 54.0203 23.9665 52.5007 23.9665C50.8694 23.9665 49.4616 23.609 48.2772 22.8939C47.0929 22.1564 46.1767 21.1956 45.5286 20.0112C44.9029 18.8045 44.5901 17.4972 44.5901 16.0894C44.5901 14.257 44.9253 12.7933 45.5957 11.6983C46.2884 10.581 47.1487 9.76538 48.1767 9.25142C49.227 8.73745 50.2884 8.48047 51.361 8.48047C52.389 8.48047 53.294 8.67041 54.0761 9.0503C54.8806 9.43019 55.551 9.92181 56.0873 10.5252C56.6236 11.1062 57.0258 11.7319 57.294 12.4023C57.5622 13.0503 57.6962 13.6537 57.6962 14.2123C57.6962 14.3911 57.6068 14.514 57.4281 14.581L48.8806 18.3017C49.2158 19.1509 49.7521 19.8995 50.4895 20.5475C51.227 21.1956 52.1655 21.5196 53.3052 21.5196C53.9532 21.5196 54.6124 21.3408 55.2828 20.9833C55.9532 20.6257 56.5342 20.0894 57.0258 19.3743C57.1823 19.1285 57.361 19.0726 57.5622 19.2067L58.5007 19.7766C58.6795 19.8883 58.7018 20.0671 58.5677 20.3129ZM50.8918 10.8604C50.199 10.8604 49.6515 11.0726 49.2493 11.4972C48.8471 11.9218 48.5677 12.4469 48.4113 13.0726C48.2772 13.6983 48.2214 14.324 48.2437 14.9497C48.2884 15.5754 48.3778 16.0894 48.5119 16.4916L53.2717 14.1118C53.294 13.1732 53.0705 12.4023 52.6013 11.7989C52.1543 11.1732 51.5845 10.8604 50.8918 10.8604Z" fill="#0C3B6E"/>
<path d="M44.3503 21.8212C44.6408 21.8212 44.786 21.9665 44.786 22.257V23.162C44.786 23.4525 44.6184 23.5978 44.2832 23.5978H35.9369C35.6017 23.5978 35.4341 23.4525 35.4341 23.162V22.257C35.4341 21.9665 35.5793 21.8212 35.8698 21.8212H35.9369C36.652 21.8212 37.1883 21.5531 37.5458 21.0168C37.9034 20.4804 38.0821 19.8212 38.0821 19.0391V7.97765C38.0821 7.41899 38.0486 6.89386 37.9816 6.40224C37.9145 5.91061 37.7581 5.49721 37.5123 5.16201C37.2665 4.80447 36.8754 4.60335 36.3391 4.55866C36.0933 4.53631 35.9704 4.40224 35.9704 4.15642V3.15084C35.9704 2.97207 36.1156 2.84916 36.4062 2.78212C37.6352 2.49162 38.6408 2.13408 39.4229 1.7095C40.205 1.28492 41.0095 0.737431 41.8363 0.0670402C41.9034 0.0223467 41.9592 0 42.0039 0H42.0374C42.0821 0 42.1045 0.0223467 42.1045 0.0670402V19.0056C42.1045 19.7877 42.2832 20.4581 42.6408 21.0168C42.9983 21.5531 43.5346 21.8212 44.2497 21.8212H44.3503Z" fill="#0C3B6E"/>
<path d="M35.4969 20.3129C34.8712 21.4078 34.0779 22.2905 33.117 22.9609C32.1785 23.6313 30.9495 23.9665 29.4299 23.9665C27.7986 23.9665 26.3908 23.609 25.2064 22.8939C24.0221 22.1564 23.1059 21.1956 22.4578 20.0112C21.8321 18.8045 21.5193 17.4972 21.5193 16.0894C21.5193 14.257 21.8545 12.7933 22.5249 11.6983C23.2176 10.581 24.0779 9.76538 25.1059 9.25142C26.1562 8.73745 27.2176 8.48047 28.2902 8.48047C29.3182 8.48047 30.2232 8.67041 31.0053 9.0503C31.8098 9.43019 32.4802 9.92181 33.0165 10.5252C33.5528 11.1062 33.955 11.7319 34.2232 12.4023C34.4914 13.0503 34.6254 13.6537 34.6254 14.2123C34.6254 14.3911 34.536 14.514 34.3573 14.581L25.8098 18.3017C26.145 19.1509 26.6813 19.8995 27.4187 20.5475C28.1562 21.1956 29.0947 21.5196 30.2344 21.5196C30.8824 21.5196 31.5416 21.3408 32.212 20.9833C32.8824 20.6257 33.4634 20.0894 33.955 19.3743C34.1115 19.1285 34.2902 19.0726 34.4914 19.2067L35.4299 19.7766C35.6087 19.8883 35.631 20.0671 35.4969 20.3129ZM27.821 10.8604C27.1282 10.8604 26.5807 11.0726 26.1785 11.4972C25.7763 11.9218 25.4969 12.4469 25.3405 13.0726C25.2064 13.6983 25.1506 14.324 25.1729 14.9497C25.2176 15.5754 25.307 16.0894 25.4411 16.4916L30.2008 14.1118C30.2232 13.1732 29.9997 12.4023 29.5305 11.7989C29.0835 11.1732 28.5137 10.8604 27.821 10.8604Z" fill="#0C3B6E"/>
<path d="M19.1732 7.70925C19.1732 9.02768 18.838 10.1115 18.1676 10.9606C17.5196 11.7875 16.6927 12.4355 15.6872 12.9048L18.905 19.0389C19.2849 19.7539 19.6872 20.402 20.1117 20.983C20.5363 21.5416 21.1173 21.821 21.8547 21.821H21.9888C22.2793 21.821 22.4246 21.9662 22.4246 22.2567V23.1618C22.4246 23.4523 22.2793 23.5975 21.9888 23.5975H12.9385C12.648 23.5975 12.5028 23.4523 12.5028 23.1618V22.2567C12.5028 21.9662 12.648 21.821 12.9385 21.821H13.1061C13.8659 21.821 14.3911 21.6534 14.6816 21.3182C14.9944 20.9606 15.0168 20.5361 14.7486 20.0444L11.4972 14.0109C10.8715 14.078 10.2346 14.1115 9.58659 14.1115H7.3743V19.0389C7.3743 19.7986 7.50838 20.4578 7.77654 21.0165C8.06704 21.5528 8.58101 21.821 9.31844 21.821H9.51955C9.81006 21.821 9.95531 21.9662 9.95531 22.2567V23.1618C9.95531 23.4523 9.81006 23.5975 9.51955 23.5975H0.469274C0.156425 23.5975 0 23.4523 0 23.1618V22.2567C0 21.9662 0.156425 21.821 0.469274 21.821H0.670391C1.43017 21.821 1.94413 21.5528 2.21229 21.0165C2.50279 20.4578 2.64804 19.7986 2.64804 19.0389V6.03327C2.64804 5.25115 2.49162 4.59193 2.17877 4.05562C1.88827 3.5193 1.31844 3.25114 0.469274 3.25114C0.178771 3.25114 0.0335196 3.10589 0.0335196 2.81539V1.91036C0.0335196 1.61986 0.178771 1.47461 0.469274 1.47461H11.2961C12.905 1.47461 14.2905 1.76511 15.4525 2.34612C16.6369 2.90478 17.5531 3.65338 18.2011 4.59193C18.8492 5.53047 19.1732 6.56958 19.1732 7.70925ZM9.0838 11.9997C11.0503 11.9997 12.4804 11.6199 13.3743 10.8601C14.2905 10.1003 14.7486 9.05003 14.7486 7.70925C14.7486 6.34612 14.324 5.26232 13.4749 4.45785C12.648 3.65338 11.4972 3.25114 10.0223 3.25114H7.3743V11.9997H9.0838Z" fill="#0C3B6E"/>
</svg>
